<svg width="46" height="26" viewBox="0 0 46 26" fill="none" xmlns="http://www.w3.org/2000/svg">
<path d="M44.5276 18.359C44.5276 19.4315 42.8195 20.75 41.4302 20.75H40.1653C40.1666 14.1859 40.1666 6.82699 40.1653 5.52078C40.1647 5.4821 40.1744 5.44373 40.1937 5.40785C40.213 5.37197 40.2415 5.3393 40.2777 5.3117C40.3139 5.2841 40.3569 5.26212 40.4045 5.24701C40.452 5.23191 40.503 5.22397 40.5547 5.22367H44.1364C44.3515 5.22367 44.5278 5.3589 44.5278 5.52311V18.359H44.5276ZM38.6909 23.0534C38.6909 23.7323 38.2475 24.8696 35.2772 24.8696C29.521 24.8696 25.9874 21.4909 25.9874 19.0678C25.9874 19.0678 25.981 11.2325 25.981 5.52325C25.9804 5.48452 25.99 5.44608 26.0094 5.41014C26.0287 5.37421 26.0573 5.3415 26.0936 5.31388C26.1298 5.28627 26.173 5.2643 26.2207 5.24924C26.2683 5.23418 26.3194 5.22633 26.3711 5.22614H29.9572C30.1725 5.22614 30.3493 5.36051 30.3493 5.52573V18.115C30.3493 20.1951 32.5467 21.8822 35.2554 21.8822H38.6928L38.6909 23.0534ZM44.4083 4.09462H40.2822C39.405 4.09462 38.6905 4.64357 38.6905 5.31698V20.7513H35.2529C33.3563 20.7513 31.8192 19.5707 31.8192 18.1147V5.31698C31.8192 4.64197 31.1057 4.09404 30.2267 4.09404H26.0989C25.2199 4.09404 24.5066 4.64197 24.5053 5.31698C24.5031 10.8973 24.5117 19.0681 24.5117 19.0681C24.5123 23.3628 30.7814 26 35.276 26C38.2908 26 40.1633 24.8685 40.1633 23.0456V21.8819H41.4296C43.6507 21.8819 46 20.0715 46 18.359V5.31698C46.0021 4.64197 45.2888 4.09404 44.4085 4.09404V4.09462H44.4083ZM20.0229 20.4769C20.0234 20.5156 20.0137 20.5539 19.9944 20.5898C19.975 20.6257 19.9464 20.6583 19.9102 20.6859C19.8739 20.7134 19.8308 20.7353 19.7832 20.7504C19.7356 20.7654 19.6846 20.7732 19.6329 20.7734H16.0469C15.8287 20.7734 15.6538 20.6379 15.6548 20.4746V7.88514C15.6548 5.80522 13.4568 4.11806 10.7486 4.11806H7.31103V2.94665C7.31103 2.26916 7.75442 1.13036 10.7247 1.13036C16.4811 1.13036 20.0157 4.50892 20.0157 6.93224C20.0157 6.93224 20.0221 14.8054 20.0221 20.4767H20.0229V20.4769ZM1.86375 20.776C1.64555 20.7712 1.47107 20.6395 1.47359 20.476V7.64248C1.47359 6.56976 3.1819 5.24958 4.57058 5.24958H5.83666C5.83471 14.6495 5.83471 19.4595 5.83666 20.4754C5.83764 20.5539 5.79708 20.6295 5.72385 20.6857C5.65062 20.7418 5.55069 20.7739 5.44592 20.775H1.86433L1.86375 20.776ZM21.4875 6.93238C21.4883 2.63716 15.219 0 10.7249 0C7.70935 0 5.83666 1.13138 5.83666 2.95436V4.11806H4.57116C2.34931 4.11806 0 5.92852 0 7.64117V20.683C0 21.358 0.713285 21.906 1.59192 21.906H5.71716C5.74281 21.906 5.76477 21.9007 5.79042 21.9007C6.63349 21.8703 7.30889 21.3384 7.30889 20.683V5.24871H10.7471C12.6429 5.24871 14.1808 6.42929 14.1808 7.88529V20.6832C14.1808 21.3582 14.8943 21.9061 15.7727 21.9061H19.9013C20.7803 21.9061 21.4932 21.3596 21.4932 20.6832C21.4963 14.9988 21.4881 6.93209 21.4881 6.93209L21.4875 6.93238Z" fill="white"/>
</svg>
